<svg xmlns="http://www.w3.org/2000/svg" viewBox="0 0 841.89 182" width="841.89" height="182">
	<g>
		<path fill="#313F48" d="M141.035,84.839c5.583-3.105,11.215-7.19,13.549-13.385c1.54-4.433,2.146-9.338,0.995-13.927
			c-1.664-6.584-6.837-11.615-12.528-14.963c-6.521-3.991-14.034-5.724-21.236-8.024c-12.276-3.783-24.553-7.567-36.818-11.355
			c-1.306-0.503-2.567,0.21-3.757,0.652c-14.114,5.495-28.252,10.92-42.366,16.389c-2.525,0.985-5.105,1.835-7.466,3.21
			c-3.991,2.188-7.567,5.44-9.386,9.682c-1.704,3.681-1.746,7.828-1.682,11.807c0.011,16.114-0.003,32.229,0.011,48.345
			c-0.048,4.073,0.791,8.311,3.272,11.635c2.957,4.053,7.53,6.469,11.991,8.536c15.202,7.062,30.42,14.136,45.629,21.181
			c1.443,0.909,3.628-0.153,3.646-1.889c0.044-1.926,0.067-3.861,0-5.781c-0.05-0.992-0.89-1.667-1.735-2.015
			c-12.894-5.99-25.777-11.985-38.683-17.979c-3.737-1.844-7.819-3.262-11.013-6.037c-2.76-2.362-3.377-6.199-3.377-9.642
			c-0.01-14.965-0.01-29.928,0-44.895c-0.01-3.675,0.617-7.57,2.946-10.54c1.841-2.384,4.204-4.367,6.753-5.929
			c14.948-5.919,29.98-11.645,44.915-17.561c11.087,3.459,22.144,7.023,33.212,10.533c4.341,1.424,8.783,2.595,12.92,4.564
			c4.564,2.117,9.229,4.669,12.186,8.888c3.143,4.402,2.778,10.699-0.243,15.069c-2.786,3.759-7.165,5.749-11.138,7.939
			c-8.816,4.773-17.811,9.15-26.769,13.61c-0.866,0.45-2.038,0.581-2.813-0.105c-1.412-1.037-0.832-2.992-0.945-4.481
			c0.062-6.833,0.184-14.252-3.694-20.2c-2.657-4.256-7.542-6.122-11.927-8.02c-1.757-0.618-3.447-1.559-5.31-1.708
			c-1.638,0.417-3.149,1.173-4.693,1.837c-1.733,0.616-1.913,3.394-0.303,4.249c4.083,1.986,8.726,3.264,11.934,6.654
			c3.035,3.095,4.245,7.531,4.214,11.779c0.018,23.603-0.006,47.195,0.018,70.793c-0.105,1.382,1.114,2.693,2.509,2.582
			c2.148,0.006,4.31,0.073,6.45-0.031c0.911-0.354,1.711-0.893,2.56-1.373c10.75-6.278,21.446-12.71,32.146-19.093
			c5.084-3.031,10.191-6.316,13.876-11.049c4.875-6.276,6.422-15.178,3.386-22.604c-2.231-5.49-6.513-9.902-11.341-13.218
			C139.405,88.109,139.453,85.617,141.035,84.839z M141.419,103.693c2.086,3.621,2.484,8.109,1.317,12.09
			c-0.807,2.611-2.538,4.831-4.578,6.595c-3.411,2.953-7.453,5.005-11.289,7.318c-7.395,4.323-14.783,8.687-22.188,12.999
			c-1.492,0.941-3.698-0.306-3.554-2.086c-0.041-10.934-0.019-21.864-0.019-32.799c-0.105-1.049,0.533-2.011,1.489-2.419
			c7.712-3.995,15.437-7.965,23.154-11.955c1.302-0.854,2.745-0.028,3.943,0.539C134.318,96.176,138.825,99.175,141.419,103.693z"/>
		<path fill="#313F48" d="M746.207,58.216c3.227-0.011,6.489-0.011,9.713,0.015c-0.012,13.981,0.012,27.966-0.012,41.944
			c13.551-14.001,27.14-27.963,40.681-41.97c4.501,0.025,8.961,0.011,13.437,0c-10.853,10.941-21.678,21.921-32.542,32.842
			c14.674,17.99,29.38,35.955,44.083,53.916c-4.201-0.014-8.398,0-12.615,0c-12.76-15.691-25.582-31.323-38.35-46.994
			c-4.889,4.971-9.79,9.934-14.682,14.865c-0.012,6.3,0.012,12.592-0.024,18.897c-3.226-0.046-6.47-0.014-9.688-0.021
			C746.227,107.214,746.222,82.721,746.207,58.216"/>
		<path fill="#313F48" d="M672.907,58.216c2.725-0.011,5.502-0.011,8.242-0.011c14.721,18.615,29.503,37.168,44.194,55.796
			c0.017-18.603,0.017-37.195,0-55.796c3.158,0.025,6.33,0,9.48,0.025c0,24.49,0,48.981,0,73.46c-2.408,0.02-4.83,0.02-7.24,0
			c-15.029-19.004-30.149-37.945-45.16-56.971c-0.016,18.988,0,37.983,0,56.971c-3.188,0.027-6.358,0.02-9.535,0
			C672.913,107.212,672.907,82.711,672.907,58.216"/>
		<path fill="#313F48" d="M586.466,103.694c-1.867-4.828-6.216-8.185-10.86-10.164c6.303-4.168,9.394-12.211,7.951-19.558
			c-0.928-5.499-4.865-10.144-9.785-12.59c-4.848-2.482-10.369-3.287-15.751-3.178c-9.85,0.025-19.712,0-29.565,0
			c-0.005,24.517,0,49.032-0.005,73.533c11.3-0.082,22.589,0.016,33.905-0.061c7.663-0.19,15.902-2.512,21.012-8.602
			C587.757,117.8,588.929,110.075,586.466,103.694z M538.148,67.496c7.031,0.024,14.072-0.013,21.135,0.02
			c4.232,0.063,8.854,0.746,12.063,3.8c4.268,4.105,3.425,11.884-1.184,15.42c-3.236,2.56-7.514,3.276-11.537,3.295
			c-6.829-0.008-13.662-0.008-20.477-0.006C538.148,82.521,538.148,75.004,538.148,67.496z M574.352,118.517
			c-4.501,3.768-10.709,4.015-16.331,3.931c-6.604-0.017-13.237,0-19.872-0.017c0-7.706,0-15.437,0-23.158
			c7.797,0.076,15.586-0.042,23.383,0.068c4.768,0.314,9.955,1.069,13.616,4.421C579.272,107.628,578.719,115.04,574.352,118.517z"/>
		<path fill="#313F48" d="M629.907,57.685c-2.603,0.017-5.195,0.019-7.788,0c-11.441,24.665-22.825,49.351-34.257,74.025
			c3.45,0.008,6.905-0.024,10.362,0.008c2.937-6.434,5.862-12.873,8.754-19.315c12.601,0.007,25.19,0,37.777,0
			c2.921,6.43,5.842,12.868,8.768,19.288c3.536,0,7.101,0.027,10.648,0C652.713,107.045,641.334,82.35,629.907,57.685z
			 M611.194,103.256c4.941-10.705,9.808-21.454,14.746-32.186c4.812,10.757,9.714,21.47,14.587,32.196
			C630.752,103.248,620.976,103.256,611.194,103.256z"/>
		<path fill="#2C8FC7" d="M318.98,58.874c3.217-0.034,6.428-0.021,9.659,0.001c0,14.087-0.02,28.186,0.005,42.289
			c0.021,5.999,1.362,12.404,5.535,16.97c3.173,3.62,7.893,5.564,12.634,5.977c4.981,0.434,10.28-0.092,14.616-2.761
			c3.969-2.35,6.625-6.477,7.842-10.869c1.106-3.844,1.167-7.858,1.146-11.829c0-13.265-0.028-26.523,0-39.793
			c3.231,0.004,6.442,0.017,9.688-0.006c-0.031,14.515,0,29.031-0.027,43.539c-0.229,8.383-2.829,17.087-8.947,23.069
			c-6.143,6.108-15.168,8.435-23.641,7.926c-7.254-0.297-14.66-2.799-19.823-8.064c-6.215-6.071-8.711-15.026-8.687-23.521
			C318.943,87.495,318.956,73.173,318.98,58.874 M258.438,68.185c0.022,8.814-0.012,17.629,0.022,26.432
			c6.945,0,13.888,0.017,20.829,0.006c4.251-0.049,8.646-0.754,12.255-3.096c6.421-3.709,7.729-13.619,2.485-18.855
			c-3.365-3.303-8.264-4.328-12.819-4.491C273.626,68.155,266.042,68.147,258.438,68.185 M248.771,58.874
			c10.602-0.034,21.213-0.011,31.819-0.011c7.802,0,15.997,2.532,21.333,8.448c7.181,7.796,6.594,21.252-1.068,28.516
			c-3.359,3.298-7.785,5.213-12.277,6.382c7.742,10.032,15.53,20.028,23.225,30.094c-4.089,0-8.174,0.026-12.244-0.008
			c-7.263-9.503-14.65-18.92-21.863-28.448c-6.41-0.054-12.826,0-19.235-0.027c-0.022,9.503,0,19.004-0.022,28.501
			c-3.214-0.018-6.435,0.009-9.648-0.018C248.771,107.831,248.789,83.359,248.771,58.874 M403.007,61.735
			c6.9-4.235,15.447-4.551,23.237-3.123c6.906,1.237,13.049,5.03,18.355,9.505c-2.039,2.595-4.123,5.126-6.162,7.701
			c-4.596-4.318-10.268-7.799-16.652-8.531c-5.555-0.731-11.96-0.166-16.101,4.023c-3.982,3.785-3.714,11.323,1.038,14.375
			c6.326,4.212,14.164,4.581,21.248,6.785c5.924,1.821,12.096,4.7,15.422,10.223c4.617,8.072,2.246,19.249-5.093,24.922
			c-7.329,5.969-17.503,6.647-26.467,4.916c-8.507-1.573-16.038-6.368-22.22-12.275c2.069-2.496,4.22-4.941,6.439-7.311
			c5.054,4.961,11.068,9.413,18.204,10.642c6.11,1.008,13.132,1.037,18.166-3.094c4.618-3.673,5.218-12.136,0-15.536
			c-6.282-4.08-13.995-4.425-20.981-6.582c-5.399-1.665-10.951-3.989-14.571-8.528c-3.1-3.749-3.935-8.869-3.487-13.6
			C394.027,70.229,397.827,64.797,403.007,61.735 M190.607,63.033c8.623-5.445,19.468-6.592,29.288-4.222
			c7.753,1.777,14.392,6.579,19.935,12.119c-2.301,2.324-4.56,4.682-6.846,6.996c-4.447-4.532-9.649-8.681-15.943-10.206
			c-8.816-2.308-18.873-0.194-25.488,6.259c-11.38,10.812-11.556,30.732-0.845,42.059c5.723,6.298,14.644,9.305,23.037,8.071
			c7.923-0.788,14.42-5.941,19.802-11.395c2.184,2.204,4.472,4.303,6.656,6.501c-3.076,3.093-6.252,6.153-9.979,8.488
			c-8.522,5.548-19.343,7.075-29.209,4.873c-8.548-1.892-16.302-7.104-21.254-14.34c-6.359-9.131-8.236-21.03-5.735-31.813
			C176.216,76.859,182.216,68.185,190.607,63.033 M507.32,25.328c3.214-0.022,6.411-0.013,9.619,0
			c0.03,46.971,0,93.95,0.006,140.925c-3.214,0.015-6.426-0.013-9.647,0.015c0.022-22.089,0.005-44.152,0.005-66.216
			c-13.191,0.005-26.396,0-39.595,0.005c-0.056,10.766-0.009,21.522-0.019,32.288c-3.22-0.043-6.417-0.06-9.633,0.011
			c-0.148-24.507-0.012-48.996-0.073-73.493c3.231-0.004,6.462,0.016,9.693-0.022c0.031,10.635-0.017,21.268,0.022,31.914
			c13.207-0.006,26.412,0.017,39.604-0.019C507.32,68.933,507.298,47.127,507.32,25.328"/>
	</g>
</svg>
